# xmcd CD database file
#
# Track frame offsets:
#	150
#	27477
#	51653
#	66428
#	91588
#	110942
#	127599
#	141227
#	167738
#	184797
#	203771
#
# Disc length: 2968 seconds
#
# Revision: 0
# Processed by: cddbd v1.4PL0 Copyright (c) Steve Scherf et al.
# Submitted via: CDex 1.40Release
#
DISCID=a00b960b
DTITLE=Matt Smith - Free Beer and Chicken
DYEAR=2002
DGENRE=Blues
TTITLE0=Let Me In
TTITLE1=Sticky
TTITLE2=Ashes In The Wind
TTITLE3=Bad Bad Way
TTITLE4=Montreal
TTITLE5=Tough Guy
TTITLE6=Simple Truths
TTITLE7=Incident At The Border
TTITLE8=12 Bar Blues
TTITLE9=Saturday Night Fish Fry
TTITLE10=One Perfect Moment
EXTD=YEAR: 2002 ID3G: 0
EXTT0=
EXTT1=
EXTT2=
EXTT3=
EXTT4=
EXTT5=
EXTT6=
EXTT7=
EXTT8=
EXTT9=
EXTT10=
PLAYORDER=
